<svg xmlns="http://www.w3.org/2000/svg" width="760" height="420" viewBox="0 0 760 420" role="img" aria-label="A star comparison chart">
<rect width="760" height="420" rx="8" fill="#f8fafc"/>
<text x="32" y="46" font-size="24" font-weight="700" fill="#0f172a">A* comparison</text>
<text x="32" y="74" font-size="14" fill="#475569">runs: 30 | mode: optimized | paths equal: true</text>
<text x="70" y="106" font-size="17" font-weight="700" fill="#0f172a">Average searched nodes</text>
<line x1="62" y1="320" x2="280" y2="320" stroke="#94a3b8"/>
<rect x="70" y="130.00" width="72" height="190.00" fill="#64748b"/>
<text x="106.0" y="122.00" text-anchor="middle" font-size="13" fill="#0f172a">77.27</text>
<text x="106.0" y="342" text-anchor="middle" font-size="12" fill="#475569">Normal</text>
<text x="106.0" y="358" text-anchor="middle" font-size="11" fill="#64748b">nodes</text>
<rect x="170" y="302.87" width="72" height="17.13" fill="#2563eb"/>
<text x="206.0" y="294.87" text-anchor="middle" font-size="13" fill="#0f172a">6.97</text>
<text x="206.0" y="342" text-anchor="middle" font-size="12" fill="#475569">Compressed</text>
<text x="206.0" y="358" text-anchor="middle" font-size="11" fill="#64748b">nodes</text>
<text x="70" y="378" font-size="14" font-weight="700" fill="#16a34a">change 90.98%</text>
<text x="410" y="106" font-size="17" font-weight="700" fill="#0f172a">Average total runtime</text>
<line x1="402" y1="320" x2="620" y2="320" stroke="#94a3b8"/>
<rect x="410" y="285.59" width="72" height="34.41" fill="#64748b"/>
<text x="446.0" y="277.59" text-anchor="middle" font-size="13" fill="#0f172a">0.45</text>
<text x="446.0" y="342" text-anchor="middle" font-size="12" fill="#475569">Normal</text>
<text x="446.0" y="358" text-anchor="middle" font-size="11" fill="#64748b">ms</text>
<rect x="510" y="130.00" width="72" height="190.00" fill="#2563eb"/>
<text x="546.0" y="122.00" text-anchor="middle" font-size="13" fill="#0f172a">2.48</text>
<text x="546.0" y="342" text-anchor="middle" font-size="12" fill="#475569">Compressed</text>
<text x="546.0" y="358" text-anchor="middle" font-size="11" fill="#64748b">ms</text>
<text x="410" y="378" font-size="14" font-weight="700" fill="#16a34a">change -452.10%</text>
</svg>