<svg xmlns="http://www.w3.org/2000/svg" width="560" height="560" viewBox="0 0 560 560" role="img" aria-label="Maze shortest path">
<rect width="560" height="560" fill="#ffffff"/>
<rect width="560" height="560" fill="none" stroke="#cbd5e1"/>
<path d="M0,0h28v28h-28z M28,0h28v28h-28z M56,0h28v28h-28z M84,0h28v28h-28z M112,0h28v28h-28z M140,0h28v28h-28z M168,0h28v28h-28z M196,0h28v28h-28z M224,0h28v28h-28z M252,0h28v28h-28z M280,0h28v28h-28z M308,0h28v28h-28z M336,0h28v28h-28z M364,0h28v28h-28z M392,0h28v28h-28z M420,0h28v28h-28z M448,0h28v28h-28z M476,0h28v28h-28z M504,0h28v28h-28z M532,0h28v28h-28z M0,28h28v28h-28z M56,28h28v28h-28z M392,28h28v28h-28z M504,28h28v28h-28z M532,28h28v28h-28z M0,56h28v28h-28z M56,56h28v28h-28z M84,56h28v28h-28z M112,56h28v28h-28z M140,56h28v28h-28z M168,56h28v28h-28z M224,56h28v28h-28z M252,56h28v28h-28z M280,56h28v28h-28z M336,56h28v28h-28z M392,56h28v28h-28z M448,56h28v28h-28z M504,56h28v28h-28z M532,56h28v28h-28z M0,84h28v28h-28z M168,84h28v28h-28z M280,84h28v28h-28z M336,84h28v28h-28z M448,84h28v28h-28z M504,84h28v28h-28z M532,84h28v28h-28z M0,112h28v28h-28z M28,112h28v28h-28z M56,112h28v28h-28z M84,112h28v28h-28z M112,112h28v28h-28z M168,112h28v28h-28z M196,112h28v28h-28z M224,112h28v28h-28z M280,112h28v28h-28z M336,112h28v28h-28z M364,112h28v28h-28z M392,112h28v28h-28z M420,112h28v28h-28z M448,112h28v28h-28z M504,112h28v28h-28z M532,112h28v28h-28z M0,140h28v28h-28z M112,140h28v28h-28z M168,140h28v28h-28z M280,140h28v28h-28z M392,140h28v28h-28z M504,140h28v28h-28z M532,140h28v28h-28z M0,168h28v28h-28z M56,168h28v28h-28z M84,168h28v28h-28z M112,168h28v28h-28z M168,168h28v28h-28z M196,168h28v28h-28z M224,168h28v28h-28z M252,168h28v28h-28z M280,168h28v28h-28z M308,168h28v28h-28z M336,168h28v28h-28z M392,168h28v28h-28z M448,168h28v28h-28z M476,168h28v28h-28z M504,168h28v28h-28z M532,168h28v28h-28z M0,196h28v28h-28z M112,196h28v28h-28z M168,196h28v28h-28z M392,196h28v28h-28z M504,196h28v28h-28z M532,196h28v28h-28z M0,224h28v28h-28z M56,224h28v28h-28z M112,224h28v28h-28z M168,224h28v28h-28z M224,224h28v28h-28z M252,224h28v28h-28z M280,224h28v28h-28z M308,224h28v28h-28z M336,224h28v28h-28z M364,224h28v28h-28z M392,224h28v28h-28z M420,224h28v28h-28z M448,224h28v28h-28z M504,224h28v28h-28z M532,224h28v28h-28z M0,252h28v28h-28z M56,252h28v28h-28z M168,252h28v28h-28z M280,252h28v28h-28z M392,252h28v28h-28z M504,252h28v28h-28z M532,252h28v28h-28z M0,280h28v28h-28z M56,280h28v28h-28z M84,280h28v28h-28z M112,280h28v28h-28z M140,280h28v28h-28z M168,280h28v28h-28z M196,280h28v28h-28z M224,280h28v28h-28z M280,280h28v28h-28z M336,280h28v28h-28z M364,280h28v28h-28z M392,280h28v28h-28z M448,280h28v28h-28z M476,280h28v28h-28z M504,280h28v28h-28z M532,280h28v28h-28z M0,308h28v28h-28z M56,308h28v28h-28z M280,308h28v28h-28z M448,308h28v28h-28z M504,308h28v28h-28z M532,308h28v28h-28z M0,336h28v28h-28z M56,336h28v28h-28z M112,336h28v28h-28z M140,336h28v28h-28z M168,336h28v28h-28z M196,336h28v28h-28z M224,336h28v28h-28z M252,336h28v28h-28z M280,336h28v28h-28z M336,336h28v28h-28z M364,336h28v28h-28z M392,336h28v28h-28z M420,336h28v28h-28z M448,336h28v28h-28z M504,336h28v28h-28z M532,336h28v28h-28z M0,364h28v28h-28z M112,364h28v28h-28z M280,364h28v28h-28z M504,364h28v28h-28z M532,364h28v28h-28z M0,392h28v28h-28z M28,392h28v28h-28z M56,392h28v28h-28z M84,392h28v28h-28z M112,392h28v28h-28z M168,392h28v28h-28z M196,392h28v28h-28z M224,392h28v28h-28z M280,392h28v28h-28z M308,392h28v28h-28z M336,392h28v28h-28z M364,392h28v28h-28z M392,392h28v28h-28z M420,392h28v28h-28z M448,392h28v28h-28z M504,392h28v28h-28z M532,392h28v28h-28z M0,420h28v28h-28z M224,420h28v28h-28z M392,420h28v28h-28z M504,420h28v28h-28z M532,420h28v28h-28z M0,448h28v28h-28z M56,448h28v28h-28z M84,448h28v28h-28z M112,448h28v28h-28z M140,448h28v28h-28z M168,448h28v28h-28z M224,448h28v28h-28z M252,448h28v28h-28z M280,448h28v28h-28z M308,448h28v28h-28z M336,448h28v28h-28z M364,448h28v28h-28z M392,448h28v28h-28z M448,448h28v28h-28z M476,448h28v28h-28z M504,448h28v28h-28z M532,448h28v28h-28z M0,476h28v28h-28z M168,476h28v28h-28z M504,476h28v28h-28z M532,476h28v28h-28z M0,504h28v28h-28z M28,504h28v28h-28z M56,504h28v28h-28z M84,504h28v28h-28z M112,504h28v28h-28z M140,504h28v28h-28z M168,504h28v28h-28z M196,504h28v28h-28z M224,504h28v28h-28z M252,504h28v28h-28z M280,504h28v28h-28z M308,504h28v28h-28z M336,504h28v28h-28z M364,504h28v28h-28z M392,504h28v28h-28z M420,504h28v28h-28z M448,504h28v28h-28z M476,504h28v28h-28z M504,504h28v28h-28z M532,504h28v28h-28z M0,532h28v28h-28z M28,532h28v28h-28z M56,532h28v28h-28z M84,532h28v28h-28z M112,532h28v28h-28z M140,532h28v28h-28z M168,532h28v28h-28z M196,532h28v28h-28z M224,532h28v28h-28z M252,532h28v28h-28z M280,532h28v28h-28z M308,532h28v28h-28z M336,532h28v28h-28z M364,532h28v28h-28z M392,532h28v28h-28z M420,532h28v28h-28z M448,532h28v28h-28z M476,532h28v28h-28z M504,532h28v28h-28z M532,532h28v28h-28z" fill="#111827"/>
<path d="M28,28h28v28h-28z M308,28h28v28h-28z M336,28h28v28h-28z M364,28h28v28h-28z M420,28h28v28h-28z M448,28h28v28h-28z M476,28h28v28h-28z M28,56h28v28h-28z M308,56h28v28h-28z M364,56h28v28h-28z M420,56h28v28h-28z M476,56h28v28h-28z M28,84h28v28h-28z M56,84h28v28h-28z M84,84h28v28h-28z M112,84h28v28h-28z M140,84h28v28h-28z M308,84h28v28h-28z M364,84h28v28h-28z M392,84h28v28h-28z M420,84h28v28h-28z M476,84h28v28h-28z M140,112h28v28h-28z M308,112h28v28h-28z M476,112h28v28h-28z M140,140h28v28h-28z M308,140h28v28h-28z M336,140h28v28h-28z M364,140h28v28h-28z M420,140h28v28h-28z M448,140h28v28h-28z M476,140h28v28h-28z M140,168h28v28h-28z M364,168h28v28h-28z M420,168h28v28h-28z M28,196h28v28h-28z M56,196h28v28h-28z M84,196h28v28h-28z M140,196h28v28h-28z M196,196h28v28h-28z M224,196h28v28h-28z M252,196h28v28h-28z M280,196h28v28h-28z M308,196h28v28h-28z M336,196h28v28h-28z M364,196h28v28h-28z M420,196h28v28h-28z M448,196h28v28h-28z M476,196h28v28h-28z M28,224h28v28h-28z M84,224h28v28h-28z M140,224h28v28h-28z M196,224h28v28h-28z M476,224h28v28h-28z M28,252h28v28h-28z M84,252h28v28h-28z M112,252h28v28h-28z M140,252h28v28h-28z M196,252h28v28h-28z M224,252h28v28h-28z M252,252h28v28h-28z M420,252h28v28h-28z M448,252h28v28h-28z M476,252h28v28h-28z M28,280h28v28h-28z M252,280h28v28h-28z M420,280h28v28h-28z M28,308h28v28h-28z M84,308h28v28h-28z M112,308h28v28h-28z M140,308h28v28h-28z M168,308h28v28h-28z M196,308h28v28h-28z M224,308h28v28h-28z M252,308h28v28h-28z M308,308h28v28h-28z M336,308h28v28h-28z M364,308h28v28h-28z M392,308h28v28h-28z M420,308h28v28h-28z M28,336h28v28h-28z M84,336h28v28h-28z M308,336h28v28h-28z M28,364h28v28h-28z M56,364h28v28h-28z M84,364h28v28h-28z M308,364h28v28h-28z M336,364h28v28h-28z M364,364h28v28h-28z M392,364h28v28h-28z M420,364h28v28h-28z M448,364h28v28h-28z M476,364h28v28h-28z M476,392h28v28h-28z M420,420h28v28h-28z M448,420h28v28h-28z M476,420h28v28h-28z M420,448h28v28h-28z M420,476h28v28h-28z M448,476h28v28h-28z M476,476h28v28h-28z" fill="#bfdbfe"/>
<polyline points="42.0,42.0 42.0,70.0 42.0,98.0 70.0,98.0 98.0,98.0 126.0,98.0 154.0,98.0 154.0,126.0 154.0,154.0 154.0,182.0 154.0,210.0 154.0,238.0 154.0,266.0 126.0,266.0 98.0,266.0 98.0,238.0 98.0,210.0 70.0,210.0 42.0,210.0 42.0,238.0 42.0,266.0 42.0,294.0 42.0,322.0 42.0,350.0 42.0,378.0 70.0,378.0 98.0,378.0 98.0,350.0 98.0,322.0 126.0,322.0 154.0,322.0 182.0,322.0 210.0,322.0 238.0,322.0 266.0,322.0 266.0,294.0 266.0,266.0 238.0,266.0 210.0,266.0 210.0,238.0 210.0,210.0 238.0,210.0 266.0,210.0 294.0,210.0 322.0,210.0 350.0,210.0 378.0,210.0 378.0,182.0 378.0,154.0 350.0,154.0 322.0,154.0 322.0,126.0 322.0,98.0 322.0,70.0 322.0,42.0 350.0,42.0 378.0,42.0 378.0,70.0 378.0,98.0 406.0,98.0 434.0,98.0 434.0,70.0 434.0,42.0 462.0,42.0 490.0,42.0 490.0,70.0 490.0,98.0 490.0,126.0 490.0,154.0 462.0,154.0 434.0,154.0 434.0,182.0 434.0,210.0 462.0,210.0 490.0,210.0 490.0,238.0 490.0,266.0 462.0,266.0 434.0,266.0 434.0,294.0 434.0,322.0 406.0,322.0 378.0,322.0 350.0,322.0 322.0,322.0 322.0,350.0 322.0,378.0 350.0,378.0 378.0,378.0 406.0,378.0 434.0,378.0 462.0,378.0 490.0,378.0 490.0,406.0 490.0,434.0 462.0,434.0 434.0,434.0 434.0,462.0 434.0,490.0 462.0,490.0 490.0,490.0" fill="none" stroke="#2563eb" stroke-width="5" stroke-linecap="round" stroke-linejoin="round"/>
<circle cx="378.0" cy="266.0" r="4" fill="#f97316"/>
<circle cx="322.0" cy="42.0" r="4" fill="#f97316"/>
<circle cx="378.0" cy="434.0" r="4" fill="#f97316"/>
<circle cx="210.0" cy="154.0" r="4" fill="#f97316"/>
<circle cx="434.0" cy="490.0" r="4" fill="#f97316"/>
<circle cx="98.0" cy="42.0" r="4" fill="#f97316"/>
<circle cx="322.0" cy="322.0" r="4" fill="#f97316"/>
<circle cx="490.0" cy="322.0" r="4" fill="#f97316"/>
<circle cx="154.0" cy="434.0" r="4" fill="#f97316"/>
<circle cx="42.0" cy="210.0" r="4" fill="#f97316"/>
<circle cx="490.0" cy="378.0" r="4" fill="#f97316"/>
<circle cx="98.0" cy="154.0" r="4" fill="#f97316"/>
<circle cx="210.0" cy="42.0" r="4" fill="#f97316"/>
<circle cx="154.0" cy="490.0" r="4" fill="#f97316"/>
<circle cx="42.0" cy="42.0" r="11.0" fill="#22c55e"/>
<text x="42.0" y="47.0" text-anchor="middle" font-size="16" font-weight="700" fill="#ffffff">S</text>
<circle cx="490.0" cy="490.0" r="11.0" fill="#ef4444"/>
<text x="490.0" y="495.0" text-anchor="middle" font-size="16" font-weight="700" fill="#ffffff">E</text>
</svg>
